<svg width="94.000000" height="94.000000" viewBox="0 0 94 94" fill="none" xmlns="http://www.w3.org/2000/svg" xmlns:xlink="http://www.w3.org/1999/xlink">
	<desc>
			Created with Pixso.
	</desc>
	<defs>
		<filter id="filter_1_48_dd" x="0.000000" y="0.000000" width="94.000000" height="94.000000" filterUnits="userSpaceOnUse" color-interpolation-filters="sRGB">
			<feFlood flood-opacity="0" result="BackgroundImageFix"/>
			<feColorMatrix in="SourceAlpha" type="matrix" values="0 0 0 0 0 0 0 0 0 0 0 0 0 0 0 0 0 0 127 0" result="hardAlpha"/>
			<feOffset dx="0" dy="0"/>
			<feGaussianBlur stdDeviation="0"/>
			<feComposite in2="hardAlpha" operator="out" k2="-1" k3="1"/>
			<feColorMatrix type="matrix" values="0 0 0 0 0.18039 0 0 0 0 0.61569 0 0 0 0 1 0 0 0 1 0"/>
			<feBlend mode="normal" in2="BackgroundImageFix" result="effect_dropShadow_1"/>
			<feBlend mode="normal" in="SourceGraphic" in2="effect_dropShadow_1" result="shape"/>
		</filter>
		<clipPath id="clip1_48">
			<rect rx="-5.000000" width="84.000000" height="84.000000" transform="translate(5.000000 5.000000)" fill="white" fill-opacity="0"/>
		</clipPath>
	</defs>
	<g filter="url(#filter_1_48_dd)">
		<rect rx="-5.000000" width="84.000000" height="84.000000" transform="translate(5.000000 5.000000)" fill="#69B9FF" fill-opacity="1.000000"/>
		<g clip-path="url(#clip1_48)">
			<path d="M65.8 18.79L28.2 18.79L9.4 37.59L9.4 65.8C9.4 71.12 13.78 75.19 18.79 75.19L75.19 75.19C80.52 75.19 84.6 71.12 84.6 65.8L84.6 37.59L65.8 18.79ZM30.7 25.06L63.29 25.06L75.82 37.59L59.53 37.59C59.53 43.86 53.89 50.13 47 50.13C40.1 50.13 34.46 43.86 34.46 37.59L18.17 37.59L30.7 25.06ZM78.33 65.8C78.33 67.68 77.08 68.93 75.19 68.93L18.79 68.93C16.92 68.93 15.66 67.36 15.66 65.8L15.66 43.86L29.14 43.86C31.96 51.07 39.16 56.4 47 56.4C54.83 56.4 62.04 51.07 64.54 43.86L78.33 43.86L78.33 65.8Z" fill="#FFFFFF" fill-opacity="1.000000" fill-rule="evenodd"/>
		</g>
	</g>
	<rect rx="-5.000000" width="84.000000" height="84.000000" transform="translate(5.000000 5.000000)" stroke="#FFFFFF" stroke-opacity="1.000000" stroke-width="10.000000"/>
</svg>
