<svg width="94.000000" height="94.000000" viewBox="0 0 94 94" fill="none" xmlns="http://www.w3.org/2000/svg" xmlns:xlink="http://www.w3.org/1999/xlink">
	<desc>
			Created with Pixso.
	</desc>
	<defs>
		<filter id="filter_1_40_dd" x="0.000000" y="0.000000" width="94.000000" height="94.000000" filterUnits="userSpaceOnUse" color-interpolation-filters="sRGB">
			<feFlood flood-opacity="0" result="BackgroundImageFix"/>
			<feColorMatrix in="SourceAlpha" type="matrix" values="0 0 0 0 0 0 0 0 0 0 0 0 0 0 0 0 0 0 127 0" result="hardAlpha"/>
			<feOffset dx="0" dy="0"/>
			<feGaussianBlur stdDeviation="0"/>
			<feComposite in2="hardAlpha" operator="out" k2="-1" k3="1"/>
			<feColorMatrix type="matrix" values="0 0 0 0 0.18039 0 0 0 0 0.61569 0 0 0 0 1 0 0 0 1 0"/>
			<feBlend mode="normal" in2="BackgroundImageFix" result="effect_dropShadow_1"/>
			<feBlend mode="normal" in="SourceGraphic" in2="effect_dropShadow_1" result="shape"/>
		</filter>
		<clipPath id="clip1_40">
			<rect rx="-5.000000" width="84.000000" height="84.000000" transform="translate(5.000000 5.000000)" fill="white" fill-opacity="0"/>
		</clipPath>
	</defs>
	<g filter="url(#filter_1_40_dd)">
		<rect rx="-5.000000" width="84.000000" height="84.000000" transform="translate(5.000000 5.000000)" fill="#69B9FF" fill-opacity="1.000000"/>
		<g clip-path="url(#clip1_40)">
			<path d="M40.73 15.66C38.85 15.66 37.59 16.92 37.59 18.79L37.59 33.21L17.86 13.47C16.6 12.22 14.72 12.22 13.47 13.47C12.22 14.72 12.22 16.6 13.47 17.86L33.21 37.59L18.79 37.59C16.92 37.59 15.66 38.85 15.66 40.73C15.66 42.61 16.92 43.86 18.79 43.86L40.73 43.86C42.61 43.86 43.86 42.3 43.86 40.73L43.86 18.79C43.86 16.92 42.3 15.66 40.73 15.66ZM80.52 76.14L60.78 56.4L75.19 56.4C77.08 56.4 78.33 55.14 78.33 53.26C78.33 51.38 77.08 50.13 75.19 50.13L53.26 50.13C51.38 50.13 50.13 51.7 50.13 53.26L50.13 75.19C50.13 77.08 51.38 78.33 53.26 78.33C55.14 78.33 56.4 77.08 56.4 75.19L56.4 60.78L76.14 80.52C77.39 81.78 79.27 81.78 80.52 80.52C81.78 79.27 81.78 77.39 80.52 76.14Z" fill="#FFFFFF" fill-opacity="1.000000" fill-rule="evenodd"/>
		</g>
	</g>
	<rect rx="-5.000000" width="84.000000" height="84.000000" transform="translate(5.000000 5.000000)" stroke="#FFFFFF" stroke-opacity="1.000000" stroke-width="10.000000"/>
</svg>
