<svg width="18.000000" height="18.000000" viewBox="0 0 18 18" fill="none" xmlns="http://www.w3.org/2000/svg" xmlns:xlink="http://www.w3.org/1999/xlink">
	<desc>
			Created with Pixso.
	</desc>
	<defs/>
	<path id="Vector" d="M15.33 -0.34L1.33 -0.34C0.19 -0.34 -0.67 0.53 -0.67 1.66L-0.67 15.66C-0.67 16.79 0.19 17.66 1.33 17.66L8.33 17.66L8.33 10.66L6.33 10.66L6.33 8.2L8.33 8.2L8.33 6.13C8.33 4 9.53 2.46 12.06 2.46L13.86 2.46L13.86 5.06L12.66 5.06C11.66 5.06 11.26 5.8 11.26 6.53L11.26 8.2L13.86 8.2L13.33 10.66L11.33 10.66L11.33 17.66L15.33 17.66C16.46 17.66 17.33 16.79 17.33 15.66L17.33 1.66C17.33 0.53 16.46 -0.34 15.33 -0.34Z" fill="#000000" fill-opacity="1.000000" fill-rule="nonzero"/>
</svg>
