<svg width="20.000000" height="20.000000" viewBox="0 0 20 20" fill="none" xmlns="http://www.w3.org/2000/svg" xmlns:xlink="http://www.w3.org/1999/xlink">
	<desc>
			Created with Pixso.
	</desc>
	<defs>
		<clipPath id="clip1_150">
			<rect id="IMAGE" width="20.000000" height="20.000000" fill="white" fill-opacity="0"/>
		</clipPath>
	</defs>
	<g clip-path="url(#clip1_150)">
		<path id="Vector" d="M2.26 5.73C2.26 7.19 2.73 8.33 3.73 8.93C4.53 9.46 5.46 9.53 5.93 9.53C6.06 9.53 6.13 9.53 6.2 9.53C6.2 9.53 6.06 10.53 6.8 11.53L6.73 11.53C5.46 11.53 1.26 11.79 1.26 15.26C1.26 18.79 5.13 18.93 5.93 18.93C6 18.93 6 18.93 6 18.93C6 18.93 6.06 18.93 6.13 18.93C6.59 18.93 7.93 18.86 9.13 18.26C10.66 17.53 11.46 16.2 11.46 14.39C11.46 12.66 10.26 11.6 9.39 10.79C8.86 10.33 8.39 9.93 8.39 9.53C8.39 9.13 8.73 8.79 9.13 8.46C9.8 7.86 10.46 6.99 10.46 5.33C10.46 3.86 10.26 2.86 9.13 2.26C9.33 2.19 9.8 2.13 10 2.13C10.6 2.06 11.53 1.93 11.53 1.46L11.53 1.33L6.93 1.33C6.86 1.33 2.26 1.53 2.26 5.73ZM9.73 14.73C9.8 16.13 8.59 17.2 6.8 17.33C4.93 17.46 3.46 16.66 3.39 15.26C3.33 14.6 3.66 13.93 4.26 13.39C4.86 12.86 5.66 12.53 6.53 12.46C6.66 12.46 6.73 12.46 6.86 12.46C8.46 12.39 9.59 13.39 9.73 14.73ZM8.53 4.73C9 6.33 8.33 7.99 7.2 8.26C7.06 8.33 6.93 8.33 6.8 8.33C5.8 8.33 4.8 7.33 4.46 5.93C4.26 5.19 4.26 4.53 4.53 3.86C4.73 3.19 5.2 2.79 5.66 2.66C5.79 2.59 5.93 2.59 6.06 2.59C7.26 2.59 8 3.06 8.53 4.73ZM16.26 8.13L16.26 5.13L14.26 5.13L14.26 8.13L11.26 8.13L11.26 10.13L14.26 10.13L14.26 13.13L16.26 13.13L16.26 10.13L19.26 10.13L19.26 8.13L16.26 8.13Z" fill="#000000" fill-opacity="1.000000" fill-rule="nonzero"/>
	</g>
</svg>
