<svg width="19.000000" height="15.000000" viewBox="0 0 19 15" fill="none" xmlns="http://www.w3.org/2000/svg" xmlns:xlink="http://www.w3.org/1999/xlink">
	<desc>
			Created with Pixso.
	</desc>
	<defs/>
	<path id="Vector" d="M16.46 3.4C16.46 3.53 16.46 3.73 16.46 3.86C16.46 8.86 12.66 14.6 5.73 14.6C3.6 14.6 1.6 14 -0.07 12.93C0.2 12.93 0.53 13 0.86 13C2.66 13 4.26 12.4 5.53 11.4C3.86 11.4 2.46 10.26 2 8.8C2.2 8.86 2.46 8.86 2.73 8.86C3.06 8.86 3.4 8.8 3.73 8.73C2 8.33 0.66 6.8 0.66 5C0.66 5 0.66 5 0.66 4.93C1.2 5.2 1.73 5.4 2.4 5.4C1.4 4.73 0.73 3.6 0.73 2.26C0.73 1.6 0.93 0.93 1.26 0.4C3.13 2.66 5.93 4.2 9.06 4.33C9 4.06 9 3.8 9 3.46C9 1.4 10.66 -0.34 12.8 -0.34C13.86 -0.34 14.86 0.13 15.53 0.86C16.4 0.66 17.2 0.4 17.93 -0.07C17.66 0.8 17.06 1.53 16.26 2C16.93 1.93 17.66 1.73 18.33 1.46C17.79 2.2 17.2 2.86 16.46 3.4Z" fill="#000000" fill-opacity="1.000000" fill-rule="nonzero"/>
</svg>
