<svg width="18.000000" height="13.000000" viewBox="0 0 18 13" fill="none" xmlns="http://www.w3.org/2000/svg" xmlns:xlink="http://www.w3.org/1999/xlink">
	<desc>
			Created with Pixso.
	</desc>
	<defs/>
	<path id="Vector" d="M12.6 3.59C12.6 3.59 11.13 8.26 11 8.59C10.93 8.2 9.86 -0.14 9.86 -0.14C7.33 -0.14 5.99 1.66 5.26 3.53C5.26 3.53 3.46 8.2 3.33 8.59C3.33 8.26 3.06 3.59 3.06 3.59C2.93 1.26 0.79 -0.14 -0.94 -0.14L1.13 12.46C3.79 12.46 5.19 10.66 5.93 8.8C5.93 8.8 7.53 4.66 7.59 4.53C7.59 4.73 8.73 12.53 8.73 12.53C11.4 12.53 12.8 10.86 13.6 9L17.33 -0.14C14.73 -0.14 13.33 1.66 12.6 3.59Z" fill="#000000" fill-opacity="1.000000" fill-rule="nonzero"/>
</svg>
