<svg width="15.000000" height="19.000000" viewBox="0 0 15 19" fill="none" xmlns="http://www.w3.org/2000/svg" xmlns:xlink="http://www.w3.org/1999/xlink">
	<desc>
			Created with Pixso.
	</desc>
	<defs/>
	<path id="Vector" d="M14.26 4.8C13.73 1.06 9.99 -0.81 6.06 -0.34C2.93 0 -0.21 2.53 -0.34 6.13C-0.41 8.33 0.19 10 2.33 10.46C3.26 8.86 2.06 8.53 1.86 7.33C1.06 2.53 7.39 -0.67 10.66 2.66C12.93 5 11.46 12.06 7.79 11.33C4.26 10.6 9.53 5 6.73 3.86C4.46 2.93 3.26 6.59 4.33 8.46C3.66 11.6 2.33 14.53 2.86 18.46C4.66 17.13 5.26 14.66 5.73 12.06C6.59 12.6 7.13 13.2 8.26 13.26C12.46 13.6 14.8 9 14.26 4.8Z" fill="#000000" fill-opacity="1.000000" fill-rule="nonzero"/>
</svg>
